# xmcd
#
# Track frame offsets:
#	150
#	21506
#	43549
#	66697
#	96104
#	112674
#	149392
#	167312
#	195027
#	217897
#	237806
#	251661
#	269906
#	286872
#	311256
#
# Disc length: 4496 seconds
#
# Revision: 5
# Processed by: cddbd v1.5.2PL0 Copyright (c) Steve Scherf et al.
# Submitted via: audiograbber 1.83.01
#
DISCID=ce118e0f
DTITLE=Gene Clark - No Other
DYEAR=1974
DGENRE=Rock
TTITLE0=Life's Greatest Fool
TTITLE1=Silver Raven
TTITLE2=No Other
TTITLE3=Strength Of Strings
TTITLE4=From A Silver Phial
TTITLE5=Some Misunderstanding
TTITLE6=The True One
TTITLE7=Lady Of The North
TTITLE8=Train Leaves Here This Morning
TTITLE9=Life's Greatest Fool (Alternate Version)
TTITLE10=Silver Raven (Alternate Version)
TTITLE11=No Other (Alternate Version)
TTITLE12=From A Silver Phial (Alternate Version)
TTITLE13=Some Misunderstanding (Alternate Version)
TTITLE14=Lady Of The North (Alternate Version)
EXTD=
EXTT0=
EXTT1=
EXTT2=
EXTT3=
EXTT4=
EXTT5=
EXTT6=
EXTT7=
EXTT8=
EXTT9=
EXTT10=
EXTT11=
EXTT12=
EXTT13=
EXTT14=
PLAYORDER=
